<?xml version="1.0" standalone="no"?>
<!DOCTYPE svg PUBLIC "-//W3C//DTD SVG 20010904//EN"
 "http://www.w3.org/TR/2001/REC-SVG-20010904/DTD/svg10.dtd">
<svg version="1.0" xmlns="http://www.w3.org/2000/svg"
 width="1026.000000pt" height="1030.000000pt" viewBox="0 0 1026.000000 1030.000000"
 preserveAspectRatio="xMidYMid meet">

<g transform="translate(0.000000,1030.000000) scale(0.100000,-0.100000)"
fill="#000000" stroke="none">
<path d="M0 10285 c0 -13 577 -15 5130 -15 4553 0 5130 2 5130 15 0 13 -577
15 -5130 15 -4553 0 -5130 -2 -5130 -15z"/>
<path d="M6008 8198 c-16 -5 -28 -14 -28 -19 0 -12 2 -12 38 7 49 24 42 32
-10 12z"/>
<path d="M6796 8108 c-6 -27 7 -44 26 -32 7 5 16 9 21 10 4 1 10 2 13 3 7 1
-41 41 -49 41 -3 0 -7 -10 -11 -22z"/>
<path d="M6862 8061 c2 -7 7 -12 11 -12 12 1 9 15 -3 20 -7 2 -11 -2 -8 -8z"/>
<path d="M5793 8045 c-3 -9 -3 -18 0 -22 10 -10 37 6 37 22 0 20 -29 20 -37 0z"/>
<path d="M5850 8041 c0 -11 -5 -21 -12 -23 -7 -3 -8 -9 -3 -18 6 -10 11 -9 22
5 15 22 17 55 3 55 -5 0 -10 -9 -10 -19z"/>
<path d="M6830 8040 c0 -5 5 -10 11 -10 5 0 7 5 4 10 -3 6 -8 10 -11 10 -2 0
-4 -4 -4 -10z"/>
<path d="M4225 7976 c-320 -66 -434 -96 -556 -147 -102 -42 -146 -75 -172
-124 -8 -16 -43 -100 -77 -185 -34 -85 -67 -161 -74 -168 -11 -12 -28 11 -100
131 -109 185 -119 192 -246 192 -52 0 -115 -5 -140 -12 -25 -7 -119 -28 -210
-49 -91 -20 -192 -45 -225 -57 -33 -11 -130 -44 -215 -74 -85 -29 -163 -53
-172 -53 -10 0 -18 -4 -18 -9 0 -11 -2 -11 -150 -63 -212 -74 -315 -130 -408
-221 -117 -114 -120 -179 -15 -353 24 -39 43 -74 43 -78 0 -4 34 -60 75 -125
41 -65 75 -127 75 -139 0 -11 4 -23 9 -27 17 -10 78 -133 72 -144 -11 -17
-138 -26 -156 -11 -8 7 -26 10 -39 8 -16 -3 -23 -1 -19 8 2 6 0 15 -6 19 -6 3
-11 1 -11 -4 0 -6 -7 -11 -15 -11 -8 0 -15 7 -15 15 0 20 -16 19 -24 -1 -10
-26 -7 -34 17 -44 46 -21 88 -51 118 -85 37 -41 61 -44 127 -13 70 32 156 35
220 8 l51 -22 45 38 c25 22 45 44 46 49 0 16 -69 45 -77 33 -3 -6 -10 -4 -15
6 -18 32 38 88 179 178 83 53 91 55 99 23 11 -45 -2 -173 -20 -191 -21 -20
-20 -26 1 -22 37 6 52 -58 67 -289 8 -120 21 -254 30 -298 9 -44 23 -147 31
-230 22 -221 64 -410 100 -454 24 -29 45 -65 45 -78 0 -4 -12 -16 -25 -26 -24
-17 -25 -17 -50 5 -16 13 -25 32 -25 50 0 23 -4 28 -23 28 -13 0 -32 -6 -42
-14 -17 -13 -16 -15 21 -40 45 -29 84 -77 84 -101 0 -19 9 -19 49 1 94 47 291
-49 291 -142 0 -17 -49 -72 -174 -196 -123 -123 -181 -188 -200 -225 -17 -34
-33 -53 -44 -53 -26 1 -104 38 -125 61 -28 29 -41 24 -32 -13 16 -68 12 -82
-20 -89 -51 -11 -159 -9 -180 4 -52 30 -89 65 -112 105 -23 39 -25 51 -20 120
2 44 12 91 22 110 20 38 15 45 -37 61 -70 23 -118 99 -118 186 0 41 -21 26
-57 -41 -99 -184 -98 -414 4 -588 162 -278 477 -495 943 -649 428 -142 923
-207 1568 -207 319 0 390 4 692 30 270 23 858 111 1010 150 19 5 76 16 125 24
172 30 711 171 913 240 131 44 149 55 154 101 4 32 1 36 -21 41 -109 25 -196
59 -220 88 -17 20 -34 11 -22 -12 5 -9 23 -32 40 -51 46 -51 41 -74 -21 -105
-61 -30 -79 -32 -162 -9 l-62 16 -53 -38 c-30 -20 -68 -41 -85 -46 -38 -11
-199 -15 -215 -5 -6 4 -28 -6 -49 -22 -57 -44 -81 -54 -133 -54 -96 0 -169 59
-169 136 0 41 20 56 74 56 40 0 44 8 18 39 -11 15 -29 23 -51 23 -19 1 -46 7
-60 15 -14 7 -31 13 -37 13 -6 0 -28 15 -50 34 -35 30 -39 39 -44 92 l-5 59
-19 -34 c-13 -25 -17 -48 -14 -87 5 -64 39 -112 103 -150 25 -14 45 -33 45
-43 0 -22 -76 -66 -139 -80 -80 -17 -123 -13 -175 14 -60 32 -66 31 -66 -5 0
-46 -24 -95 -68 -139 -47 -48 -94 -69 -190 -86 -128 -23 -244 3 -326 72 -22
19 -36 23 -55 18 -98 -26 -189 -11 -273 45 -34 23 -44 26 -46 14 -2 -8 3 -26
12 -39 29 -44 22 -52 -53 -59 -75 -8 -165 13 -175 40 -3 8 -14 14 -25 14 -28
0 -51 48 -51 107 l0 47 -17 -24 c-10 -14 -23 -47 -28 -75 -13 -62 -38 -78
-109 -70 -53 7 -125 39 -130 58 -2 7 -8 28 -14 47 -20 62 21 149 120 253 52
55 56 57 105 57 29 0 64 -5 80 -11 24 -9 30 -8 43 12 97 144 281 172 388 58
31 -33 32 -33 77 -21 59 16 81 15 141 -3 47 -14 85 -43 118 -89 12 -18 14 -18
60 -1 37 14 62 17 121 12 l74 -7 10 36 c20 73 87 143 177 186 93 44 198 51
320 23 29 -6 34 -4 62 37 86 125 243 198 425 198 104 0 167 -19 238 -72 52
-40 53 -40 102 -29 72 16 128 14 172 -9 57 -29 70 -26 84 19 6 22 31 61 55 88
92 101 232 157 396 157 110 1 182 -17 253 -65 53 -35 65 -32 93 25 31 65 116
135 189 155 50 14 195 14 231 1 38 -15 58 -5 73 37 21 57 106 136 176 163 85
32 175 36 251 12 l60 -19 34 29 c19 15 49 31 68 34 25 5 32 10 27 23 -26 65
-11 116 55 186 27 28 44 60 59 109 25 80 26 105 7 167 -28 93 -61 135 -148
191 -51 33 -59 56 -30 79 27 22 60 39 76 39 48 0 -7 68 -73 90 -31 10 -53 26
-73 54 -32 44 -33 69 -3 75 24 4 169 -16 244 -35 54 -13 86 -8 73 12 -8 12
-149 68 -207 82 -22 6 -68 13 -102 17 -54 6 -65 11 -87 39 -23 31 -30 48 -27
72 1 13 73 4 238 -30 168 -35 237 -62 419 -163 31 -18 65 -33 75 -33 9 0 34
19 54 42 32 35 46 43 93 50 29 5 70 17 90 27 46 23 84 73 75 97 -4 11 -3 15 4
11 12 -7 30 50 19 60 -10 10 -38 -7 -43 -27 -3 -12 -14 -20 -27 -20 -23 -1
-66 -32 -66 -49 0 -12 -39 -15 -64 -5 -20 8 -20 24 -1 60 17 33 20 80 6 89 -5
3 -13 -5 -16 -17 -11 -32 -55 -65 -153 -114 -56 -28 -100 -44 -125 -44 -25 0
-36 -4 -31 -11 4 -8 -1 -9 -17 -3 -13 4 -37 9 -54 9 -16 0 -41 7 -55 13 -29
15 -70 70 -70 94 0 14 -9 16 -54 11 -73 -8 -104 2 -142 44 l-32 35 -37 -36
c-19 -20 -44 -36 -53 -36 -10 0 -23 -5 -30 -12 -8 -8 -32 2 -99 44 -177 112
-235 130 -447 137 l-159 6 -10 29 c-14 42 6 92 62 150 59 62 129 96 200 96 45
0 52 3 47 16 -3 9 1 36 9 62 32 91 31 125 -5 209 -38 90 -65 129 -132 195 -26
26 -48 54 -48 62 0 21 -54 228 -75 286 -33 93 -113 188 -215 256 -191 127
-463 161 -713 89 -139 -40 -333 -147 -433 -237 -28 -27 -58 -48 -66 -48 -8 0
-33 20 -57 44 -80 81 -204 126 -351 126 -73 0 -100 -5 -185 -36 -72 -27 -114
-36 -151 -35 -50 2 -76 -2 -254 -33 -47 -8 -121 -20 -165 -26 -44 -6 -94 -16
-112 -21 -36 -12 -83 -60 -102 -107 -7 -18 -19 -32 -25 -32 -6 0 -54 11 -106
24 l-95 24 -1 74 c-1 86 -43 207 -111 324 -79 133 -132 167 -268 171 -70 2
-125 -5 -250 -31z m304 -92 c48 -34 94 -189 61 -209 -6 -4 -10 8 -10 28 0 77
-53 157 -104 157 -94 0 -681 -139 -786 -185 -33 -15 -40 -27 -93 -158 -59
-142 -123 -274 -111 -227 3 14 28 84 54 155 26 72 56 153 65 182 9 29 23 57
30 63 27 22 524 156 690 185 159 29 175 29 204 9z m-83 -79 c10 -26 -39 -95
-111 -154 -330 -275 -670 -761 -1486 -2127 -76 -127 -144 -235 -151 -241 -20
-17 -66 -4 -72 21 -13 54 -78 596 -106 881 -25 266 -36 427 -51 740 -6 138
-15 254 -19 259 -26 27 -344 -140 -565 -297 -44 -31 -85 -57 -91 -57 -6 0 -35
38 -64 85 -40 67 -49 89 -41 99 21 25 256 154 401 220 183 83 638 241 750 259
l25 4 -25 1 c-82 4 -464 -107 -710 -206 -208 -84 -570 -268 -570 -290 0 -4 11
-24 25 -44 14 -21 62 -97 106 -170 45 -73 90 -140 101 -149 21 -17 17 -39 -7
-39 -7 0 -40 46 -73 103 -95 162 -105 177 -149 245 -24 36 -43 67 -43 71 0 12
336 186 505 261 224 99 578 215 795 259 131 27 226 36 235 22 9 -16 -24 -442
-36 -461 -7 -10 -8 61 -5 208 l6 222 -48 0 -47 -1 33 -14 c38 -17 38 -9 17
-250 -33 -382 -45 -1203 -18 -1212 7 -3 26 25 45 64 19 37 99 199 180 358 185
366 267 538 380 795 108 247 102 233 129 297 20 48 25 54 77 73 117 44 598
174 660 179 7 1 15 -6 18 -14z m2930 -116 c77 -14 194 -72 243 -120 50 -50 66
-106 58 -205 -4 -53 -12 -84 -27 -107 -19 -29 -21 -29 -16 -7 17 69 18 158 2
207 -17 53 -78 120 -131 145 -109 53 -306 67 -480 33 -135 -25 -331 -126 -453
-231 -23 -20 -40 -30 -36 -21 12 31 156 145 246 194 100 55 214 98 300 112 76
13 224 13 294 0z m32 -118 c117 -52 139 -156 65 -308 -91 -186 -395 -372 -685
-420 -87 -14 -98 -19 -99 -37 -4 -76 17 -117 74 -145 141 -68 420 48 629 262
48 50 88 94 88 99 0 15 44 8 112 -18 92 -35 95 -41 45 -94 -233 -249 -606
-451 -910 -492 -298 -40 -476 106 -437 358 51 332 324 647 673 779 95 35 154
44 282 41 90 -2 120 -6 163 -25z m-1213 -50 c83 -37 155 -124 154 -186 0 -18
-2 -18 -17 5 -38 56 -88 103 -136 128 -43 22 -67 27 -157 30 -115 4 -96 9
-310 -80 -22 -10 -30 -8 -44 5 -9 10 -26 15 -38 13 -32 -7 -188 -34 -291 -50
-49 -8 -95 -21 -101 -28 -7 -7 -24 -45 -39 -84 -25 -68 -66 -155 -66 -142 0
11 50 192 64 233 l14 40 139 22 c353 58 316 54 339 32 26 -24 27 -24 77 9 99
65 158 83 272 79 67 -2 103 -9 140 -26z m-68 -72 c46 -17 102 -60 123 -93 58
-95 39 -293 -48 -491 -51 -117 -161 -270 -250 -349 -159 -140 -361 -219 -502
-197 -58 10 -113 32 -125 51 -14 23 -35 8 -46 -32 -6 -24 -17 -61 -24 -83 -7
-22 -21 -66 -30 -97 -20 -64 -38 -74 -53 -29 -9 25 -17 31 -57 37 -25 3 -82 3
-126 0 -101 -9 -100 -28 -14 264 17 56 123 380 132 400 3 8 43 123 88 255 69
201 86 242 106 252 13 6 76 19 139 28 63 9 132 19 153 22 33 5 37 3 37 -16 0
-12 -5 -31 -11 -42 -5 -11 -9 -32 -7 -46 3 -24 5 -25 18 -12 71 69 199 149
278 173 56 17 179 20 219 5z m-1276 -158 c143 -37 219 -86 219 -140 l-1 -26
-22 25 c-32 36 -66 56 -138 81 -89 30 -322 38 -461 15 -122 -20 -144 -19 -93
3 34 15 105 34 200 54 59 13 227 6 296 -12z m-28 -76 c88 -18 147 -45 147 -64
0 -20 -40 -124 -120 -311 -93 -218 -151 -379 -148 -409 7 -58 76 -31 188 72
28 26 58 47 66 47 52 0 2 -110 -92 -203 -130 -127 -222 -177 -340 -185 -121
-8 -167 28 -180 142 l-7 56 -101 -98 c-187 -179 -350 -243 -502 -197 -150 45
-192 219 -104 436 139 342 510 650 860 713 101 18 250 19 333 1z m3007 -165
c76 -32 110 -58 110 -82 0 -23 -115 -147 -126 -135 -4 4 2 17 13 30 39 42 62
89 53 107 -5 9 -72 43 -150 75 -104 43 -140 62 -140 75 0 15 10 14 93 -15 50
-17 117 -42 147 -55z m-5359 -776 c16 -187 32 -379 34 -429 l5 -90 -15 50
c-16 58 -50 372 -65 622 -10 153 -8 205 7 190 2 -3 18 -157 34 -343z m5679
-75 c68 -16 162 -64 202 -104 21 -21 41 -54 48 -81 25 -88 -8 -222 -77 -312
-16 -21 -22 -37 -16 -43 5 -5 38 -20 74 -33 130 -48 287 -118 304 -136 15 -16
15 -21 1 -47 -17 -35 -154 -163 -172 -163 -28 0 -21 21 27 81 71 89 75 98 52
120 -10 10 -74 41 -143 69 -175 71 -192 81 -187 105 3 11 21 65 41 120 57 159
48 238 -34 308 -71 61 -134 79 -290 85 -101 3 -158 0 -223 -12 -106 -20 -287
-83 -346 -121 -24 -14 -45 -24 -48 -22 -3 3 6 12 19 20 12 7 46 28 73 45 103
64 244 114 370 131 80 11 259 6 325 -10z m-139 -93 c103 -24 149 -75 149 -165
0 -102 -64 -202 -200 -315 -150 -124 -382 -232 -544 -252 -28 -4 -57 -11 -63
-17 -35 -27 1 -114 61 -148 33 -19 55 -24 112 -23 200 3 419 130 612 354 l30
34 98 -45 c54 -25 99 -50 102 -57 4 -14 -136 -149 -228 -218 -231 -174 -501
-291 -715 -308 -90 -8 -205 6 -279 32 -62 22 -139 94 -156 147 -19 61 -28 65
-58 25 -14 -19 -69 -78 -122 -131 -76 -76 -111 -104 -174 -135 -135 -66 -258
-57 -294 21 -46 101 -6 281 122 552 43 89 62 141 56 147 -25 25 -216 -114
-311 -225 -107 -126 -200 -295 -264 -479 -20 -58 -41 -110 -48 -116 -12 -11
-216 -44 -268 -44 -15 0 -29 6 -32 13 -7 18 129 435 187 571 9 21 16 42 16 47
0 17 -31 9 -99 -26 l-69 -34 -32 -98 c-61 -189 -169 -345 -325 -472 -87 -70
-207 -133 -305 -160 -82 -23 -201 -28 -259 -10 -50 15 -112 59 -136 96 -11 17
-25 39 -32 49 -12 18 -13 18 -26 1 -8 -9 -20 -44 -26 -76 -6 -33 -18 -64 -25
-70 -8 -7 -69 -25 -137 -42 -206 -51 -308 -82 -529 -163 -306 -111 -615 -253
-882 -403 -54 -30 -103 -53 -109 -51 -6 2 -20 26 -31 53 -47 123 -88 249 -88
272 0 30 42 72 355 351 121 108 240 215 265 238 25 23 63 57 85 75 22 19 45
39 50 45 22 24 463 396 545 459 21 17 94 75 162 129 67 55 142 115 166 134 80
63 55 66 -149 17 -273 -67 -495 -141 -777 -258 -119 -49 -197 -76 -202 -71 -9
9 16 136 50 262 13 50 11 49 210 119 454 159 975 269 1463 308 87 7 87 7 87
-16 0 -13 -14 -67 -31 -121 l-31 -98 -265 -206 c-291 -226 -458 -364 -633
-523 -255 -231 -554 -520 -547 -528 3 -2 65 16 139 41 319 109 615 185 826
212 l52 7 0 69 c0 210 87 398 264 574 188 186 409 283 624 272 70 -3 100 -10
138 -29 67 -34 111 -100 120 -179 5 -42 11 -60 21 -60 17 0 175 89 185 104 4
6 21 52 38 102 17 50 36 99 43 108 15 20 292 65 308 49 6 -6 -3 -50 -27 -126
-21 -64 -35 -120 -31 -123 3 -4 44 28 89 71 207 195 405 305 549 305 54 0 64
-3 90 -29 51 -52 41 -98 -78 -341 -95 -193 -142 -317 -150 -397 -5 -43 -3 -54
11 -59 33 -13 69 9 161 98 96 93 105 107 125 193 15 65 90 224 131 278 18 23
62 73 98 110 223 232 555 359 792 303z m-1048 -111 c51 -24 40 -30 -20 -10
-35 12 -64 15 -108 10 -81 -9 -182 -34 -228 -57 -21 -11 -43 -18 -48 -16 -15
5 111 66 171 83 70 19 182 15 233 -10z m-593 -104 c16 -30 12 -36 -10 -16 -18
16 -27 17 -97 6 -43 -7 -105 -16 -138 -21 -155 -24 -200 -32 -218 -42 -15 -8
-18 -7 -15 4 6 18 61 34 223 62 179 31 241 33 255 7z m-820 -101 c59 -14 107
-38 148 -74 50 -46 38 -50 -25 -7 -70 46 -161 70 -275 73 -75 1 -78 2 -33 8
77 11 136 10 185 0z m-2990 -399 c5 -29 10 -85 11 -124 1 -90 13 -131 42 -145
12 -6 17 -11 11 -11 -7 -1 -22 7 -33 17 -19 14 -25 39 -41 156 -16 119 -17
177 -4 163 2 -2 8 -27 14 -56z m5045 -583 c14 -6 25 -17 25 -23 0 -17 -46 -35
-101 -42 -63 -7 -99 2 -99 27 0 35 123 62 175 38z m-907 -119 c2 -12 -14 -26
-55 -45 -47 -24 -71 -29 -133 -29 -73 0 -140 21 -140 45 0 5 15 11 33 14 17 3
70 11 117 19 111 19 174 18 178 -4z m-1713 -293 c11 -11 12 -16 2 -24 -35 -28
-169 -32 -223 -6 -34 16 -35 18 -18 31 26 19 220 18 239 -1z m-3215 -92 c0 -8
-7 -14 -15 -14 -15 0 -21 21 -9 33 10 9 24 -2 24 -19z"/>
<path d="M2584 6373 c3 -21 8 -64 11 -96 6 -49 9 -56 21 -46 10 8 14 8 14 0 0
-18 20 -13 27 7 3 9 13 25 21 35 8 9 12 17 8 17 -4 0 -3 8 2 18 7 13 4 22 -15
37 -14 11 -32 27 -41 36 -10 9 -25 19 -35 22 -17 6 -18 3 -13 -30z"/>
<path d="M2715 6350 c-3 -5 -1 -10 4 -10 6 0 11 5 11 10 0 6 -2 10 -4 10 -3 0
-8 -4 -11 -10z"/>
<path d="M7093 7408 c-52 -17 -163 -108 -230 -188 -57 -67 -143 -217 -143
-248 0 -21 49 -13 128 19 193 80 348 230 360 348 3 33 0 50 -10 59 -22 18 -69
22 -105 10z"/>
<path d="M7148 7083 c7 -3 16 -2 19 1 4 3 -2 6 -13 5 -11 0 -14 -3 -6 -6z"/>
<path d="M7108 7053 c7 -3 16 -2 19 1 4 3 -2 6 -13 5 -11 0 -14 -3 -6 -6z"/>
<path d="M7000 6990 l-25 -20 33 11 c17 6 32 15 32 20 0 14 -13 10 -40 -11z"/>
<path d="M5763 7231 c-128 -59 -257 -256 -362 -555 -47 -135 -50 -159 -19
-180 60 -43 200 0 288 87 105 104 231 351 251 495 21 146 -41 205 -158 153z"/>
<path d="M5971 6924 c-15 -18 -13 -21 14 -26 14 -2 21 3 23 20 4 26 -16 29
-37 6z"/>
<path d="M4510 7044 c-150 -49 -309 -176 -408 -324 -94 -143 -142 -259 -142
-346 0 -62 17 -84 64 -84 126 0 438 392 551 693 16 42 16 50 4 58 -15 9 -45
11 -69 3z"/>
<path d="M3958 6678 c-39 -21 -50 -38 -23 -38 8 0 15 6 15 13 1 7 6 4 15 -6
13 -18 14 -18 25 3 21 39 9 49 -32 28z"/>
<path d="M3804 6668 c-4 -7 -14 -24 -23 -37 -15 -23 -15 -24 6 -13 12 7 25 21
28 33 8 24 0 36 -11 17z"/>
<path d="M7670 5885 c-66 -42 -117 -91 -176 -166 -52 -67 -124 -196 -124 -223
0 -28 56 -14 175 44 194 94 342 273 296 359 -10 17 -21 21 -64 21 -42 0 -62
-7 -107 -35z"/>
<path d="M7820 5590 c-8 -5 -23 -7 -33 -4 -19 6 -256 -106 -276 -130 -7 -8
-19 -12 -27 -9 -8 3 -14 0 -14 -6 0 -6 10 -11 23 -11 34 0 125 27 152 44 13 9
33 16 45 16 11 0 20 5 20 10 0 6 9 10 19 10 11 0 32 10 48 23 15 12 40 28 56
35 28 12 37 32 15 32 -7 0 -20 -5 -28 -10z"/>
<path d="M5173 5522 c-90 -37 -174 -135 -256 -298 -49 -97 -70 -182 -71 -289
-1 -104 13 -149 55 -170 37 -20 52 -19 97 4 149 76 322 416 326 639 1 80 0 85
-27 108 -33 28 -66 30 -124 6z"/>
<path d="M8250 5450 c0 -5 -7 -10 -15 -10 -8 0 -15 -7 -15 -15 0 -18 21 -20
38 -3 15 15 16 38 2 38 -5 0 -10 -4 -10 -10z"/>
<path d="M7415 5431 c-3 -5 -1 -12 5 -16 12 -7 30 2 30 16 0 12 -27 12 -35 0z"/>
<path d="M6671 5394 c-19 -24 -19 -54 0 -54 9 0 39 53 39 70 0 18 -18 11 -39
-16z"/>
<path d="M8210 5389 c0 -5 5 -7 10 -4 6 3 10 8 10 11 0 2 -4 4 -10 4 -5 0 -10
-5 -10 -11z"/>
<path d="M5060 7985 c0 -37 15 -64 29 -50 6 6 2 23 -10 45 l-19 35 0 -30z"/>
<path d="M2905 7929 c-11 -17 1 -21 15 -4 8 9 8 15 2 15 -6 0 -14 -5 -17 -11z"/>
<path d="M2905 7840 c-3 -5 -1 -10 4 -10 6 0 11 5 11 10 0 6 -2 10 -4 10 -3 0
-8 -4 -11 -10z"/>
<path d="M6472 7762 c-10 -7 -8 -15 8 -35 30 -38 47 -35 42 8 -4 35 -21 45
-50 27z"/>
<path d="M6403 7743 c9 -2 25 -2 35 0 9 3 1 5 -18 5 -19 0 -27 -2 -17 -5z"/>
<path d="M8383 7359 c-7 -7 -13 -18 -13 -23 0 -12 -44 -59 -74 -80 -19 -13
-18 -14 11 -29 17 -9 42 -30 56 -47 14 -16 30 -30 34 -30 5 0 19 13 31 30 12
16 36 37 53 45 l30 16 -48 47 c-26 26 -52 55 -58 65 -8 15 -12 16 -22 6z"/>
<path d="M8280 7093 c0 -5 11 -25 25 -45 27 -40 33 -83 13 -91 -10 -3 -10 -8
-2 -17 18 -18 54 5 54 34 0 26 -57 117 -77 124 -7 2 -13 0 -13 -5z"/>
<path d="M8668 6993 c7 -3 16 -2 19 1 4 3 -2 6 -13 5 -11 0 -14 -3 -6 -6z"/>
<path d="M8750 6970 c0 -5 7 -10 15 -10 20 0 97 -71 115 -107 8 -15 17 -30 20
-33 3 -3 16 -20 29 -37 12 -18 31 -33 42 -33 21 0 38 28 23 39 -5 3 -18 23
-29 45 -24 46 -82 98 -141 125 -48 23 -74 27 -74 11z"/>
<path d="M1340 6543 l-21 -27 25 -25 c25 -24 26 -24 46 -6 25 23 26 47 2 68
-24 22 -27 22 -52 -10z"/>
<path d="M9420 6509 c0 -8 -13 -28 -30 -44 -30 -29 -39 -58 -20 -70 10 -6 32
-75 34 -108 2 -34 19 -17 39 40 17 50 18 66 8 117 -10 56 -31 100 -31 65z"/>
<path d="M1240 6444 c0 -8 5 -12 10 -9 6 3 10 10 10 16 0 5 -4 9 -10 9 -5 0
-10 -7 -10 -16z"/>
<path d="M1465 6340 c-3 -5 -2 -10 4 -10 5 0 13 5 16 10 3 6 2 10 -4 10 -5 0
-13 -4 -16 -10z"/>
<path d="M875 5992 c-50 -42 -77 -192 -40 -222 8 -7 12 -16 9 -21 -9 -15 13
-10 26 6 7 8 9 22 6 31 -9 23 3 37 20 23 7 -6 20 -9 28 -6 18 7 9 47 -11 47
-9 0 -13 7 -11 18 2 9 10 16 16 15 7 -2 12 3 12 11 0 8 3 22 6 30 4 11 2 15
-8 11 -9 -4 -19 4 -26 20 -9 20 -9 25 1 25 7 0 18 -5 24 -11 8 -8 13 -8 18 1
7 11 -21 39 -40 39 -5 0 -19 -7 -30 -17z"/>
<path d="M1974 5978 c-12 -19 100 -98 139 -98 8 0 20 -7 27 -15 11 -13 10 -14
-4 -9 -13 5 -16 0 -15 -22 1 -17 3 -22 6 -11 6 23 15 22 38 -5 l19 -23 12 70
c8 47 9 74 2 83 -7 7 -36 12 -77 12 -38 1 -76 7 -91 15 -31 18 -47 19 -56 3z"/>
<path d="M9396 5873 c-4 -9 -2 -21 3 -26 15 -15 41 0 41 23 0 25 -35 28 -44 3z"/>
<path d="M2210 5784 c0 -8 5 -12 10 -9 6 4 8 11 5 16 -9 14 -15 11 -15 -7z"/>
<path d="M9380 5762 c0 -6 4 -12 8 -14 19 -8 123 -149 160 -218 66 -121 87
-210 86 -370 -1 -161 -28 -278 -95 -418 -63 -131 -175 -296 -264 -387 -87 -89
-88 -91 -74 -124 10 -22 19 -29 31 -25 12 4 18 0 18 -11 0 -9 -6 -15 -12 -14
-27 3 -38 -2 -38 -16 0 -19 4 -19 46 1 18 9 36 24 39 34 3 11 14 22 24 25 17
5 110 104 141 151 130 192 162 253 203 379 46 142 60 234 55 374 -4 108 -9
139 -37 220 -39 115 -81 192 -165 297 -61 77 -126 137 -126 116z"/>
<path d="M9230 5706 c0 -2 7 -9 15 -16 9 -7 15 -8 15 -2 0 5 -7 12 -15 16 -8
3 -15 4 -15 2z"/>
<path d="M2125 5659 c-4 -6 -5 -12 -2 -15 2 -3 7 2 10 11 7 17 1 20 -8 4z"/>
<path d="M9355 5650 c3 -5 8 -10 11 -10 2 0 4 5 4 10 0 6 -5 10 -11 10 -5 0
-7 -4 -4 -10z"/>
<path d="M658 5611 c-36 -36 -84 -135 -92 -189 -12 -81 25 -215 70 -253 9 -7
25 -32 34 -55 37 -85 105 -123 222 -124 l77 0 19 -42 c39 -88 118 -131 245
-136 48 -2 87 -7 87 -10 0 -4 -35 -43 -78 -87 -116 -121 -194 -249 -229 -376
-25 -90 -24 -292 0 -374 71 -234 275 -471 567 -661 370 -240 999 -450 1595
-533 283 -39 393 -46 795 -46 461 0 622 11 1100 76 286 39 765 133 1089 215
425 108 814 227 911 279 33 18 38 43 8 47 -13 2 -24 9 -24 16 -1 6 -2 16 -3
21 0 5 -10 11 -21 14 -11 3 -20 13 -20 22 0 15 -8 17 -67 11 -187 -18 -213
-19 -214 -5 -1 8 -2 28 -3 44 -1 29 -2 30 -46 27 -25 -2 -79 -12 -120 -22
-393 -97 -1051 -221 -1385 -259 -218 -26 -355 -41 -425 -46 -41 -3 -115 -10
-165 -15 -49 -5 -157 -12 -240 -15 -146 -6 -205 -15 -235 -35 -12 -8 -9 -10
12 -10 29 0 73 -38 88 -76 6 -14 24 -25 54 -33 50 -12 58 -25 23 -35 -47 -15
-368 -19 -547 -7 -711 47 -1116 127 -1550 306 -197 81 -438 224 -567 336 -66
59 -118 117 -111 125 3 3 25 -2 49 -10 24 -9 53 -16 64 -16 21 0 106 -39 116
-53 7 -10 38 -29 93 -56 42 -21 71 -18 61 6 -4 12 0 14 17 8 13 -4 32 -7 43
-6 10 0 25 -5 32 -11 7 -6 13 -7 13 -2 -1 5 -27 26 -58 46 -31 21 -73 52 -93
70 -19 18 -60 56 -90 83 -315 288 -372 639 -157 960 44 67 188 215 245 252 33
22 41 8 15 -27 -32 -43 -27 -53 16 -31 21 11 64 26 96 34 32 9 60 18 63 21 3
2 0 20 -6 39 -8 22 -8 42 -2 58 12 32 68 84 116 109 l40 20 -116 -6 c-82 -5
-118 -3 -123 5 -10 16 -46 14 -46 -3 0 -21 -57 -65 -119 -94 -70 -32 -161 -33
-215 -2 l-36 22 -28 -21 c-65 -46 -183 -49 -270 -8 -30 14 -55 37 -83 78 -51
75 -59 98 -70 192 -8 64 -6 83 7 108 8 17 13 33 11 36 -7 7 -47 -35 -47 -49 0
-7 -7 -21 -15 -32 -7 -10 -17 -43 -21 -72 -3 -30 -10 -57 -15 -60 -17 -10 -86
16 -111 43 -14 16 -31 47 -38 71 -6 23 -13 42 -16 42 -8 0 -26 -54 -29 -90 -2
-19 -4 -36 -4 -38 -1 -1 -10 2 -21 8 -22 12 -40 69 -45 144 -2 28 -4 54 -4 59
-1 4 -8 7 -16 7 -9 0 -15 9 -15 23 0 14 3 18 8 10 8 -13 26 -5 29 14 4 21 -27
22 -47 1 -11 -12 -20 -17 -20 -10 0 6 4 14 10 17 5 3 15 15 20 26 16 29 -9 23
-42 -10z"/>
<path d="M9323 5607 c15 -13 27 -28 27 -34 0 -7 5 -15 10 -18 6 -3 10 3 10 14
0 24 -37 61 -59 61 -11 -1 -8 -8 12 -23z"/>
<path d="M9409 5566 c12 -18 20 -44 20 -57 -1 -16 -3 -18 -6 -7 -2 9 -11 19
-19 22 -19 7 -18 -36 2 -94 11 -31 16 -82 17 -165 0 -128 -12 -179 -67 -292
-14 -29 -26 -56 -26 -59 0 -3 -13 -23 -30 -44 -16 -21 -30 -42 -30 -48 0 -6
-4 -12 -8 -14 -10 -4 -62 -73 -62 -81 0 -4 5 -7 10 -7 6 0 10 7 10 15 0 17 35
20 45 4 4 -6 13 -8 20 -6 6 3 19 -2 28 -11 49 -51 56 -55 62 -40 3 8 1 27 -5
43 -11 28 -11 29 8 12 19 -17 21 -17 49 17 34 42 106 208 123 286 21 95 -2
360 -31 360 -4 0 -10 15 -13 34 -4 19 -13 39 -21 46 -8 7 -15 20 -15 30 0 10
-7 20 -15 24 -8 3 -15 12 -15 19 0 14 -31 47 -44 47 -4 0 2 -15 13 -34z"/>
<path d="M9075 5441 c-3 -5 3 -16 12 -23 53 -39 71 -152 33 -201 -26 -32 -25
-51 1 -87 13 -17 23 -49 26 -77 3 -42 0 -53 -32 -95 -24 -33 -40 -46 -51 -41
-8 3 -25 1 -37 -5 -12 -6 -33 -13 -47 -15 -21 -4 -20 -4 7 -6 21 -1 38 -10 52
-28 l21 -28 20 25 c11 14 27 34 36 45 8 11 34 58 57 105 41 83 42 88 42 185 0
91 -3 105 -29 158 -17 33 -36 57 -45 57 -9 0 -22 9 -29 20 -13 22 -27 26 -37
11z"/>
<path d="M1460 5191 c0 -20 17 -37 27 -28 7 8 -7 47 -18 47 -5 0 -9 -9 -9 -19z"/>
<path d="M810 4835 c-7 -8 -10 -25 -6 -40 5 -20 13 -25 36 -25 23 0 31 5 36
25 3 14 4 32 0 40 -7 19 -50 19 -66 0z"/>
<path d="M9013 4795 c-3 -9 -3 -18 -1 -21 3 -3 8 4 11 16 6 23 -1 27 -10 5z"/>
<path d="M9167 4703 c-2 -5 -1 -19 3 -33 l6 -25 6 28 c5 26 -5 47 -15 30z"/>
<path d="M8915 4690 c-3 -5 -2 -10 4 -10 5 0 13 5 16 10 3 6 2 10 -4 10 -5 0
-13 -4 -16 -10z"/>
<path d="M9241 4674 c0 -11 3 -14 6 -6 3 7 2 16 -1 19 -3 4 -6 -2 -5 -13z"/>
<path d="M9280 4667 c0 -8 7 -14 15 -14 8 0 15 6 15 14 0 7 -7 13 -15 13 -8 0
-15 -6 -15 -13z"/>
<path d="M8886 4653 c-6 -14 -5 -15 5 -6 7 7 10 15 7 18 -3 3 -9 -2 -12 -12z"/>
<path d="M984 4592 c-148 -180 -228 -412 -209 -606 13 -139 82 -318 168 -439
142 -199 429 -406 722 -520 169 -66 179 -59 30 18 -152 79 -168 89 -235 134
-105 72 -180 134 -271 228 -109 111 -184 214 -237 324 -64 130 -85 222 -86
364 -1 159 26 266 105 421 31 63 54 114 51 114 -4 0 -21 -17 -38 -38z"/>
<path d="M8759 4567 c-19 -13 -47 -35 -63 -50 -16 -15 -58 -42 -93 -59 -56
-27 -75 -31 -151 -33 -80 -1 -94 -4 -166 -40 -74 -37 -77 -40 -52 -48 14 -5
26 -13 26 -18 0 -12 -58 -69 -70 -69 -5 0 -30 -13 -57 -30 -31 -19 -68 -32
-105 -36 -51 -6 -61 -4 -90 18 -33 25 -58 27 -58 5 0 -22 -42 -91 -72 -120
-26 -25 -78 -53 -163 -87 -89 -35 -112 -47 -124 -63 -9 -13 -16 -15 -20 -8 -5
8 -13 6 -27 -5 -10 -8 -14 -13 -7 -10 6 4 14 2 17 -3 8 -13 89 5 190 43 174
65 616 270 624 289 2 4 9 7 15 7 20 0 164 88 301 185 24 17 77 54 119 82 42
29 78 57 82 63 11 18 -21 11 -56 -13z"/>
<path d="M8795 4397 c-16 -7 -41 -19 -55 -28 -14 -10 -92 -55 -175 -102 -82
-46 -188 -106 -235 -133 -47 -28 -165 -89 -262 -138 -98 -48 -180 -92 -183
-97 -4 -5 4 -9 17 -9 16 0 19 -3 10 -9 -8 -5 -11 -17 -7 -33 5 -19 2 -29 -12
-36 -17 -10 -17 -12 5 -34 20 -22 21 -26 6 -44 -8 -10 -12 -13 -8 -5 5 10 3
12 -6 6 -10 -6 -10 -11 3 -20 10 -7 17 -17 17 -24 0 -6 1 -11 3 -12 36 -10
101 -7 126 6 17 8 34 16 38 17 5 1 54 23 110 49 59 28 110 45 121 42 17 -4 23
4 37 54 9 32 18 66 21 76 8 26 24 20 35 -13 6 -16 13 -30 15 -30 3 0 60 31
129 72 130 75 350 246 350 271 0 7 6 17 13 23 11 8 11 12 -2 23 -14 11 -16 11
-16 -2 0 -34 -26 -5 -28 31 -2 20 -7 39 -12 40 -6 2 -10 10 -10 18 0 8 -7 14
-15 14 -18 0 -19 12 -3 28 14 14 12 14 -27 -1z"/>
<path d="M8956 4067 c-11 -8 -16 -19 -12 -26 5 -8 11 -7 22 4 22 21 13 39 -10
22z"/>
<path d="M8875 4012 c-11 -2 -31 -12 -45 -21 -14 -10 -63 -38 -110 -63 -78
-41 -88 -45 -110 -33 -27 15 -37 12 -101 -27 -25 -15 -56 -28 -68 -28 -27 0
-27 -10 5 -72 31 -61 63 -108 84 -124 8 -7 28 -24 45 -39 16 -16 49 -37 74
-48 42 -18 43 -21 26 -33 -10 -8 -25 -14 -32 -14 -55 0 -189 -112 -218 -182
-17 -43 -40 -49 -49 -14 -15 60 -163 169 -266 196 -25 7 -49 14 -54 17 -4 3
25 19 65 36 54 23 88 45 127 84 67 69 68 82 3 72 -82 -13 -251 -106 -251 -138
0 -27 -68 -73 -215 -146 l-140 -70 2 -50 c2 -27 3 -58 3 -67 1 -10 7 -18 15
-18 35 0 271 86 475 173 44 19 65 11 118 -45 47 -49 67 -81 112 -175 17 -35
34 -63 38 -63 4 0 18 35 30 78 36 119 68 170 137 219 33 23 93 54 133 70 39
15 72 32 72 38 -1 5 -39 28 -86 50 -57 27 -84 44 -82 55 4 18 166 128 191 129
46 2 155 -99 179 -166 12 -34 38 -45 38 -17 0 21 63 123 94 151 13 13 34 27
47 32 13 5 17 10 9 10 -37 2 -105 -56 -142 -121 l-16 -29 -29 38 c-41 55 -80
86 -132 105 -25 9 -46 21 -46 27 0 6 21 24 47 40 56 35 86 85 69 113 -6 10
-11 26 -11 35 0 27 -13 39 -35 35z"/>
<path d="M9195 3789 c-4 -6 -5 -12 -2 -15 7 -7 37 7 37 17 0 13 -27 11 -35 -2z"/>
<path d="M8060 3238 c-106 -47 -191 -82 -275 -115 -49 -19 -92 -37 -95 -40 -8
-9 49 6 105 26 185 69 302 116 313 126 24 22 -2 23 -48 3z"/>
<path d="M3253 3154 c0 -7 6 -10 12 -7 16 6 26 -23 19 -53 -4 -16 -2 -24 7
-24 9 0 6 -5 -5 -12 -18 -10 -15 -12 25 -24 119 -36 379 -60 379 -35 0 5 12
14 28 19 24 9 24 11 5 11 -27 1 -38 18 -24 35 6 7 8 16 4 19 -3 4 -2 7 4 7 20
0 1 40 -21 45 -49 10 -268 29 -347 30 -62 1 -86 -2 -86 -11z"/>
<path d="M3740 3119 c0 -5 5 -7 10 -4 6 3 10 8 10 11 0 2 -4 4 -10 4 -5 0 -10
-5 -10 -11z"/>
<path d="M3735 3090 c3 -5 8 -10 11 -10 2 0 4 5 4 10 0 6 -5 10 -11 10 -5 0
-7 -4 -4 -10z"/>
<path d="M7620 3060 c-11 -8 -7 -9 15 -4 37 8 45 14 19 14 -10 0 -26 -5 -34
-10z"/>
<path d="M7570 3040 c-23 -7 -23 -8 -3 -9 12 -1 25 4 28 9 3 6 5 10 3 9 -2 -1
-14 -5 -28 -9z"/>
<path d="M5965 2825 c-343 -63 -419 -77 -515 -90 -58 -9 -112 -17 -120 -20
-35 -10 -367 -46 -592 -64 -245 -20 -433 -30 -608 -32 -78 -1 -88 -3 -55 -10
57 -11 489 -11 706 1 455 26 847 78 1241 165 81 18 145 43 111 44 -12 1 -25 6
-29 12 -5 8 3 10 25 7 18 -3 34 -1 37 4 9 13 -74 7 -201 -17z"/>
</g>
</svg>
