<?xml version="1.0" standalone="no"?>
<!DOCTYPE svg PUBLIC "-//W3C//DTD SVG 20010904//EN"
 "http://www.w3.org/TR/2001/REC-SVG-20010904/DTD/svg10.dtd">
<svg version="1.0" xmlns="http://www.w3.org/2000/svg"
 width="499.000000pt" height="500.000000pt" viewBox="0 0 499.000000 500.000000"
 preserveAspectRatio="xMidYMid meet">

<g transform="translate(0.000000,500.000000) scale(0.100000,-0.100000)"
fill="#000000" stroke="none">
<path d="M3320 3910 c0 -5 5 -10 10 -10 6 0 10 5 10 10 0 6 -4 10 -10 10 -5 0
-10 -4 -10 -10z"/>
<path d="M2820 3899 c0 -5 5 -7 10 -4 6 3 10 8 10 11 0 2 -4 4 -10 4 -5 0 -10
-5 -10 -11z"/>
<path d="M1985 3856 c-149 -34 -249 -69 -272 -98 -7 -8 -24 -45 -38 -83 -14
-37 -32 -79 -39 -93 -13 -25 -14 -25 -56 47 -55 92 -75 106 -140 97 -95 -13
-367 -88 -455 -127 -11 -5 -50 -19 -86 -33 -152 -56 -229 -118 -229 -185 0
-11 38 -89 85 -173 47 -84 85 -155 85 -159 0 -13 -64 -15 -107 -3 -41 12 -63
0 -26 -13 10 -3 32 -19 49 -35 31 -29 32 -29 69 -14 45 19 75 20 109 4 22 -9
29 -8 45 6 21 19 17 51 -4 42 -19 -7 -26 4 -14 26 14 26 118 93 128 82 4 -5
13 -79 20 -164 11 -145 27 -276 52 -445 6 -38 20 -85 30 -103 24 -42 24 -48
-1 -55 -15 -4 -20 0 -20 15 0 14 -5 18 -16 14 -9 -3 -18 -6 -22 -6 -3 0 5 -11
18 -25 12 -13 26 -22 30 -20 4 3 7 -3 6 -13 -1 -12 5 -16 19 -14 54 9 87 4
112 -15 49 -36 43 -56 -46 -144 -45 -44 -88 -93 -96 -108 -11 -23 -20 -28 -37
-24 -13 3 -30 11 -38 18 -35 28 -40 27 -28 -5 5 -17 9 -33 6 -35 -2 -2 -24 -5
-49 -6 -93 -5 -145 81 -105 172 5 12 1 18 -17 23 -29 7 -54 42 -59 82 l-3 29
-22 -35 c-47 -72 -51 -198 -9 -277 86 -167 348 -316 661 -377 419 -82 877 -66
1450 49 156 31 422 100 487 126 46 19 41 69 -7 69 -11 0 -33 9 -50 20 -16 11
-33 20 -37 20 -15 0 4 -28 27 -40 51 -27 -19 -71 -86 -53 -33 9 -41 7 -66 -13
-22 -19 -40 -23 -90 -24 -43 0 -72 -6 -96 -20 -42 -25 -91 -18 -114 16 -20 32
-13 60 15 57 16 -2 22 3 22 17 0 15 -7 20 -27 20 -16 0 -43 9 -60 20 -28 16
-33 26 -34 57 l-1 38 -13 -29 c-21 -49 -3 -91 55 -127 13 -7 11 -12 -9 -28
-38 -29 -90 -34 -133 -12 l-38 18 0 -32 c0 -88 -177 -138 -262 -75 -21 15 -38
20 -57 17 -40 -8 -99 8 -127 34 -28 26 -30 20 -9 -21 l16 -30 -46 0 c-74 0
-115 29 -115 81 0 31 -18 12 -26 -25 -7 -40 -35 -50 -83 -30 -55 23 -53 79 7
152 32 41 38 44 76 40 36 -4 45 0 72 29 27 29 38 33 81 33 37 0 58 -6 78 -22
22 -17 39 -21 77 -19 43 2 52 -1 76 -27 23 -24 32 -28 46 -20 10 6 35 8 55 6
34 -5 37 -3 54 33 28 59 76 84 171 86 77 2 79 2 108 37 62 76 225 100 299 45
29 -22 39 -24 67 -16 25 8 41 6 67 -6 l34 -16 23 42 c54 99 238 134 342 65 15
-11 19 -10 23 0 3 8 19 29 35 48 36 41 92 58 158 49 46 -6 48 -6 68 29 36 62
135 93 206 66 17 -6 27 -6 32 1 3 6 17 14 30 19 20 8 23 15 18 34 -4 18 4 38
30 76 57 83 45 163 -33 221 -29 21 -30 24 -14 41 9 10 22 18 29 18 23 0 4 28
-27 41 -31 12 -67 55 -56 66 4 3 42 -1 87 -9 44 -8 80 -12 80 -9 0 10 -78 41
-133 52 -48 10 -77 30 -77 52 0 26 203 -24 291 -71 l66 -35 28 21 c15 12 42
24 60 28 50 9 104 81 75 99 -5 3 -10 2 -10 -3 0 -13 -76 -62 -84 -55 -3 3 -3
25 0 47 5 40 5 41 -10 15 -22 -38 -125 -82 -173 -73 -46 8 -63 20 -63 45 0 16
-5 18 -25 13 -26 -7 -85 12 -85 27 0 5 -16 -3 -36 -16 l-36 -25 -42 30 c-62
42 -154 70 -231 70 -63 0 -65 1 -65 26 0 14 4 34 10 44 15 27 73 60 108 60 30
0 31 2 38 57 6 51 4 63 -21 110 -15 30 -41 63 -56 74 -22 15 -29 29 -29 52 0
42 -25 121 -49 161 -46 72 -144 123 -255 132 -130 11 -244 -26 -365 -117 l-52
-40 -41 35 c-60 52 -131 65 -217 42 -36 -10 -97 -22 -136 -27 -38 -5 -106 -15
-150 -23 -69 -13 -84 -19 -110 -48 -30 -34 -31 -34 -75 -23 -44 11 -45 12 -48
57 -4 56 -66 183 -104 211 -43 32 -107 30 -273 -7z m240 -56 c8 -16 15 -39 14
-52 0 -18 -5 -13 -19 20 -20 43 -24 45 -75 42 -61 -4 -339 -75 -362 -92 -7 -5
-17 -26 -24 -46 -16 -49 -67 -162 -74 -162 -2 0 5 24 16 53 12 28 30 78 41
110 23 66 19 64 178 107 145 39 188 48 242 49 43 1 49 -2 63 -29z m-70 -37
c-10 -16 -39 -46 -66 -68 -117 -95 -318 -380 -612 -864 -84 -140 -161 -260
-171 -265 -12 -8 -19 -8 -25 2 -15 25 -68 541 -77 758 -4 85 -11 157 -16 160
-12 8 -160 -69 -245 -127 l-72 -49 -27 46 c-15 26 -23 49 -18 54 19 18 233
120 329 155 55 21 141 48 190 61 50 13 70 21 45 18 -74 -10 -269 -70 -385
-119 -86 -36 -222 -103 -243 -121 -7 -5 102 -176 115 -181 7 -3 10 -9 7 -14
-10 -17 -23 -9 -40 24 -9 17 -38 65 -65 105 l-47 72 151 74 c197 97 381 158
576 190 l33 6 -7 -93 c-4 -50 -12 -96 -17 -102 -7 -7 -8 18 -4 78 4 50 3 87
-2 87 -12 0 -21 -146 -28 -465 -5 -179 -3 -257 4 -250 27 26 362 723 362 754
0 14 291 99 343 100 28 1 28 1 12 -26z m1502 -55 c61 -30 86 -75 79 -136 -9
-69 -26 -87 -19 -21 9 94 -33 141 -143 159 -117 19 -256 -22 -364 -109 l-55
-44 45 47 c49 52 158 111 230 126 71 14 173 5 227 -22z m-58 -34 c55 -22 68
-57 46 -123 -34 -103 -190 -207 -345 -230 -53 -7 -63 -32 -31 -72 16 -20 27
-24 73 -23 75 2 157 44 243 125 l70 66 43 -19 c43 -19 44 -20 25 -40 -43 -49
-166 -137 -245 -176 -195 -95 -357 -93 -404 7 -41 86 7 228 118 346 114 122
295 184 407 139z m-567 -30 c27 -14 58 -60 58 -86 0 -7 -9 1 -20 17 -43 65
-150 85 -239 44 -25 -11 -51 -17 -59 -14 -8 3 -44 0 -81 -5 -36 -6 -81 -13
-99 -16 -28 -4 -37 -13 -57 -57 -17 -36 -23 -43 -19 -23 3 17 11 44 19 62 13
30 15 32 120 48 78 12 111 14 120 6 10 -8 20 -7 39 6 69 45 153 52 218 18z
m-31 -40 c71 -36 75 -148 9 -282 -46 -93 -91 -148 -166 -197 -94 -62 -191 -77
-249 -39 -20 13 -22 11 -39 -56 -18 -68 -31 -85 -42 -55 -5 11 -22 15 -65 15
-51 0 -59 2 -59 19 0 18 117 379 162 498 20 55 25 58 103 68 28 4 58 9 69 12
16 4 17 1 11 -27 l-7 -32 46 31 c90 62 166 77 227 45z m-593 -79 c23 -10 47
-26 53 -37 6 -11 7 -18 2 -16 -110 54 -169 63 -298 45 -69 -10 -68 0 2 19 61
18 184 12 241 -11z m-39 -31 c61 -18 63 1 -20 -201 -57 -136 -67 -172 -52
-186 8 -8 47 15 85 51 60 55 42 -19 -20 -83 -65 -67 -171 -102 -223 -75 -13 8
-19 21 -19 45 0 19 -3 35 -6 35 -3 0 -30 -22 -60 -49 -70 -64 -127 -91 -191
-91 -175 0 -155 210 37 401 141 140 318 198 469 153z m1416 -62 c46 -18 71
-34 73 -45 4 -20 -21 -52 -52 -69 -17 -9 -17 -7 3 21 13 18 21 37 18 44 -2 7
-27 20 -55 30 -56 21 -97 46 -72 46 8 0 46 -12 85 -27z m-2585 -368 c5 -71 12
-161 16 -199 4 -39 4 -67 0 -64 -9 8 -35 264 -36 343 0 99 10 57 20 -80z
m2812 -71 c78 -35 97 -100 57 -194 -12 -27 -20 -52 -17 -54 3 -3 43 -21 89
-39 47 -19 85 -41 87 -49 4 -22 -65 -96 -88 -94 -16 1 -14 7 16 43 18 23 34
44 34 47 0 2 -35 19 -77 37 -109 47 -105 41 -77 110 29 72 30 100 4 132 -64
82 -248 84 -415 3 -48 -23 -62 -27 -45 -13 33 28 123 69 185 85 71 18 189 11
247 -14z m-74 -50 c22 -17 27 -28 26 -64 0 -29 -8 -56 -23 -79 -53 -78 -200
-169 -312 -191 -65 -13 -76 -32 -39 -69 56 -56 217 -5 323 103 l59 59 44 -17
c24 -9 47 -22 51 -28 14 -22 -149 -149 -257 -199 -123 -58 -257 -75 -333 -43
-36 15 -71 52 -82 86 -6 17 -11 14 -40 -25 -50 -64 -147 -126 -198 -126 -24 0
-48 7 -59 17 -38 34 -16 159 53 294 34 68 24 75 -37 31 -97 -71 -207 -234
-229 -339 -7 -37 -11 -39 -99 -48 l-67 -7 7 28 c4 16 26 85 50 154 24 68 41
126 39 128 -2 2 -17 -4 -34 -13 -24 -12 -41 -37 -75 -109 -31 -67 -58 -107
-97 -147 -138 -137 -326 -170 -389 -66 -20 32 -25 28 -35 -25 -6 -32 -11 -37
-43 -43 -136 -24 -385 -116 -600 -222 -96 -47 -177 -81 -181 -77 -4 5 -18 41
-31 81 -29 86 -46 61 166 252 209 189 255 228 449 386 94 76 172 139 174 141
44 39 -303 -61 -488 -141 -51 -21 -81 -30 -81 -22 0 10 8 49 25 124 12 53 471
173 768 201 48 4 89 6 91 4 2 -2 -5 -30 -16 -62 -13 -39 -28 -64 -46 -76 -49
-32 -266 -206 -357 -288 -143 -127 -315 -289 -315 -297 0 -3 30 5 68 18 125
46 277 86 406 105 16 3 20 13 23 63 10 180 205 371 391 383 100 7 162 -33 162
-104 l0 -34 50 26 c44 23 52 32 71 84 23 63 16 60 131 76 l48 6 -20 -57 c-11
-32 -20 -62 -20 -67 0 -6 27 14 59 44 111 100 231 155 285 130 39 -18 33 -54
-31 -187 -56 -118 -81 -215 -54 -215 7 0 36 22 64 49 41 39 57 64 75 117 40
114 119 207 229 266 108 59 245 73 301 31z m-542 -39 c19 -15 19 -15 -1 -6
-37 16 -91 13 -145 -7 -66 -25 -79 -19 -19 9 54 24 137 26 165 4z m-296 -38
c0 -2 3 -13 6 -23 6 -17 6 -17 -7 -1 -13 17 -20 17 -114 2 -55 -9 -106 -21
-114 -28 -11 -9 -13 -8 -9 4 7 21 238 66 238 46z m-356 -71 c19 -9 37 -23 40
-30 3 -8 -12 -4 -37 11 -32 18 -58 24 -107 25 -48 0 -60 3 -45 10 27 12 107 4
149 -16z m-1476 -297 c6 -6 12 -17 12 -22 -1 -6 -10 0 -20 13 -15 18 -20 37
-19 80 l2 56 6 -57 c3 -31 12 -63 19 -70z m2427 -178 c0 -10 -10 -15 -34 -15
-37 0 -54 20 -24 28 31 9 58 3 58 -13z m-445 -45 c0 -22 -33 -35 -89 -35 -74
0 -69 25 7 38 81 14 82 14 82 -3z m-2378 -172 c-4 -35 -6 -36 -15 -16 -7 16
-6 27 3 38 17 20 17 20 12 -22z m1558 22 c-8 -10 -31 -15 -66 -15 -41 0 -54 4
-54 15 0 12 14 15 66 15 58 0 65 -2 54 -15z"/>
<path d="M1254 3088 c3 -13 6 -41 7 -63 1 -23 4 -31 6 -17 2 12 9 22 14 22 5
0 15 11 21 25 10 21 8 28 -8 40 -29 22 -47 19 -40 -7z"/>
<path d="M3435 3586 c-56 -25 -181 -183 -161 -204 10 -10 81 17 130 50 53 35
108 111 104 143 -4 25 -33 29 -73 11z"/>
<path d="M3380 3386 c0 -2 7 -7 16 -10 8 -3 12 -2 9 4 -6 10 -25 14 -25 6z"/>
<path d="M2789 3497 c-18 -12 -50 -44 -70 -71 -39 -51 -109 -215 -109 -253 0
-56 105 -31 165 40 48 56 96 160 102 223 9 84 -22 106 -88 61z"/>
<path d="M2145 3398 c-105 -55 -220 -220 -213 -305 2 -31 7 -39 25 -41 48 -7
190 161 248 293 14 31 25 60 25 65 0 16 -43 10 -85 -12z"/>
<path d="M3725 2852 c-41 -26 -90 -83 -120 -142 -28 -56 -23 -61 41 -34 93 38
187 136 171 178 -9 22 -54 21 -92 -2z"/>
<path d="M3757 2703 c-43 -18 -177 -86 -152 -77 11 3 34 8 50 9 26 3 122 46
165 74 22 15 -21 10 -63 -6z"/>
<path d="M2499 2667 c-78 -52 -139 -173 -139 -275 0 -64 11 -82 51 -82 91 0
234 330 160 370 -27 14 -34 13 -72 -13z"/>
<path d="M3550 2648 c0 -9 5 -20 11 -23 17 -11 18 -2 3 19 -12 17 -14 17 -14
4z"/>
<path d="M3255 2630 c-3 -5 -12 -7 -19 -4 -8 3 -16 -3 -18 -14 -8 -28 32 -23
43 6 8 22 5 30 -6 12z"/>
<path d="M3986 2625 c-8 -22 10 -26 27 -7 15 16 15 18 -3 19 -10 1 -21 -5 -24
-12z"/>
<path d="M3120 3760 c-12 -8 -10 -10 11 -10 14 0 31 -6 38 -12 11 -11 13 -10
7 5 -3 10 -6 21 -6 23 0 8 -35 4 -50 -6z"/>
<path d="M4075 3557 c-4 -10 -19 -24 -34 -32 -19 -10 -21 -14 -9 -15 10 0 25
-11 34 -25 l16 -25 20 25 c11 14 27 25 36 25 11 0 6 7 -14 19 -18 11 -34 25
-37 33 -3 9 -7 8 -12 -5z"/>
<path d="M4038 3428 c6 -7 12 -26 14 -43 4 -25 6 -27 12 -12 9 20 -10 67 -27
67 -6 0 -5 -5 1 -12z"/>
<path d="M4222 3390 c41 -12 87 -43 93 -61 9 -26 39 -56 52 -52 28 10 -31 86
-84 109 -18 8 -45 14 -60 13 l-28 -1 27 -8z"/>
<path d="M653 3175 c-10 -10 -9 -16 1 -24 10 -8 16 -8 25 3 16 19 -9 40 -26
21z"/>
<path d="M4563 3131 c-18 -28 5 -86 25 -64 15 15 12 75 -3 80 -6 2 -16 -6 -22
-16z"/>
<path d="M950 2903 c0 -11 54 -43 73 -43 8 0 22 -10 30 -22 16 -23 16 -23 16
13 1 35 0 37 -41 42 -24 2 -51 8 -60 12 -10 4 -18 3 -18 -2z"/>
<path d="M407 2850 c-5 -20 9 -38 20 -26 4 3 2 6 -4 6 -6 0 -9 9 -6 20 3 11 3
20 0 20 -2 0 -7 -9 -10 -20z"/>
<path d="M4570 2850 c0 -5 5 -10 10 -10 6 0 10 5 10 10 0 6 -4 10 -10 10 -5 0
-10 -4 -10 -10z"/>
<path d="M4589 2766 c67 -79 94 -146 99 -240 6 -134 -47 -263 -168 -400 -63
-73 -73 -100 -40 -109 14 -3 31 8 63 42 217 233 241 512 60 699 -51 52 -52 53
-14 8z"/>
<path d="M312 2710 c-5 -3 -16 -22 -26 -44 -24 -51 -15 -104 27 -169 36 -56
70 -77 124 -77 32 0 41 -5 55 -30 19 -34 71 -60 118 -60 l32 0 -47 -52 c-25
-29 -60 -82 -78 -118 -27 -57 -31 -75 -31 -146 0 -72 4 -90 33 -148 122 -249
493 -438 1026 -522 86 -14 172 -18 390 -18 315 0 482 16 805 80 268 53 665
164 719 201 2 1 -11 16 -29 33 -30 28 -34 29 -78 19 -26 -5 -55 -12 -66 -15
-12 -4 -16 -2 -12 5 4 6 2 11 -4 11 -7 0 -9 8 -5 20 4 12 2 20 -5 20 -6 0 -8
-5 -4 -12 5 -8 2 -9 -10 -5 -10 4 -89 -8 -175 -28 -336 -74 -628 -116 -923
-131 -76 -4 -138 -10 -138 -14 0 -21 60 -70 87 -71 24 -1 23 -2 -12 -11 -53
-13 -346 -3 -500 17 -288 38 -479 97 -672 206 -75 43 -189 137 -178 147 2 3
13 -3 24 -12 10 -9 21 -13 22 -7 3 5 18 3 39 -6 19 -9 38 -15 43 -15 4 1 7 -2
7 -6 0 -5 12 -14 26 -20 14 -7 23 -8 20 -3 -3 5 1 11 9 15 11 4 -9 29 -69 88
-107 107 -139 170 -139 273 0 99 33 167 125 258 37 37 73 67 80 67 6 0 2 -10
-10 -23 -28 -30 -28 -41 1 -23 12 7 34 16 50 20 23 5 27 11 27 41 0 29 6 39
33 55 l32 20 -53 -1 c-28 -1 -55 1 -59 4 -3 4 -21 -7 -39 -23 -42 -37 -93 -47
-133 -27 -26 13 -31 13 -45 -2 -24 -24 -98 -21 -132 5 -43 31 -67 82 -68 140
l-1 51 -17 -29 c-10 -16 -18 -40 -18 -53 0 -14 -4 -25 -9 -25 -18 0 -59 41
-66 67 l-8 28 -13 -32 c-15 -36 -29 -43 -31 -15 -3 35 -10 69 -17 80 -4 7 -2
12 3 12 6 0 11 4 11 8 0 9 -37 11 -48 2z m603 -960 c-3 -5 -12 -10 -18 -10 -7
0 -6 4 3 10 19 12 23 12 15 0z"/>
<path d="M4577 2706 c4 -13 3 -17 -5 -12 -7 4 -12 1 -12 -9 0 -9 5 -13 10 -10
6 3 10 1 10 -4 0 -6 -5 -11 -10 -11 -7 0 -7 -7 0 -21 16 -30 13 -137 -5 -189
-9 -25 -36 -75 -60 -112 -25 -36 -45 -70 -45 -74 0 -5 7 2 16 14 18 26 39 28
60 7 9 -8 11 -15 5 -15 -5 0 -13 5 -16 10 -3 6 -12 10 -18 10 -7 0 -3 -7 7
-15 30 -23 38 -19 74 35 64 93 80 213 42 312 -19 50 -70 129 -53 84z"/>
<path d="M4419 2631 c6 -11 16 -23 21 -26 15 -9 12 -48 -6 -74 -10 -14 -13
-26 -7 -30 6 -3 15 -16 22 -29 10 -19 10 -28 -4 -48 -9 -14 -27 -29 -41 -34
-21 -8 -23 -12 -12 -24 11 -12 15 -12 30 1 10 9 15 20 12 24 -3 5 -1 9 4 9 16
0 43 74 44 121 1 57 -9 89 -28 89 -8 0 -13 4 -10 8 2 4 -4 14 -15 20 -18 12
-19 11 -10 -7z"/>
<path d="M710 2525 c0 -14 4 -25 9 -25 4 0 6 11 3 25 -2 14 -6 25 -8 25 -2 0
-4 -11 -4 -25z"/>
<path d="M401 2351 c-15 -10 -8 -41 9 -41 15 0 25 29 14 40 -5 5 -15 5 -23 1z"/>
<path d="M4492 2265 c4 -4 3 -17 -3 -29 -9 -19 -9 -20 4 -3 9 11 21 15 33 11
25 -9 16 0 -16 16 -14 7 -22 9 -18 5z"/>
<path d="M467 2210 c-14 -16 -38 -56 -54 -87 -25 -52 -28 -68 -28 -158 0 -92
3 -106 32 -168 60 -126 196 -242 375 -319 48 -21 92 -38 96 -38 4 0 -29 20
-73 43 -190 100 -296 201 -363 345 -24 50 -27 69 -27 162 0 100 2 109 36 178
19 39 34 72 33 72 -1 0 -13 -13 -27 -30z"/>
<path d="M4221 2187 c-30 -21 -60 -32 -95 -35 -52 -4 -125 -31 -126 -45 0 -5
5 -5 10 -2 26 16 6 -17 -24 -40 -40 -30 -95 -42 -124 -26 -19 10 -23 8 -36
-18 -20 -37 -58 -68 -96 -76 -17 -4 -30 -11 -30 -16 0 -6 -3 -8 -8 -5 -4 2
-18 -2 -32 -10 -22 -12 -23 -13 -5 -14 47 0 185 56 360 147 74 38 138 78 249
155 6 4 8 9 6 11 -3 2 -25 -10 -49 -26z"/>
<path d="M4187 2082 c-51 -30 -153 -85 -227 -123 -74 -38 -129 -69 -121 -69 9
0 11 -8 7 -26 -4 -15 -2 -32 5 -40 9 -11 8 -18 -2 -31 -13 -17 -13 -17 5 -3
18 14 18 13 12 -8 -7 -20 -5 -22 11 -14 71 37 155 72 163 67 5 -3 15 15 21 39
12 47 29 53 29 12 0 -57 49 -125 114 -158 l29 -15 -36 -12 c-38 -13 -107 -83
-107 -110 0 -8 -12 4 -27 28 -21 31 -43 49 -85 69 l-58 26 32 13 c36 15 65 39
79 65 8 15 5 15 -29 6 -51 -14 -82 -32 -117 -69 -16 -17 -60 -45 -97 -61 -72
-32 -79 -40 -71 -80 5 -26 6 -26 47 -14 22 7 81 30 129 51 l89 37 34 -33 c18
-18 41 -52 50 -76 19 -49 25 -47 44 15 16 52 58 95 116 119 24 10 44 21 44 24
0 3 -18 13 -40 23 -22 10 -40 21 -40 25 0 11 76 61 93 61 22 0 66 -38 83 -73
l16 -31 14 32 c7 18 25 43 40 57 15 14 21 25 14 25 -6 0 -25 -14 -41 -31 l-29
-31 -35 31 c-20 17 -42 31 -50 31 -22 0 -18 14 7 25 11 6 28 21 37 35 10 14
11 21 4 16 -9 -5 -13 -1 -13 13 0 32 -13 32 -72 -4 -35 -21 -64 -31 -77 -28
-11 3 -30 -2 -43 -11 -26 -18 -38 -20 -38 -6 0 6 26 27 58 47 87 56 162 114
173 136 8 13 8 17 1 13 -14 -8 -21 4 -24 41 -1 17 -8 30 -16 30 -7 0 -55 -25
-105 -55z"/>
<path d="M4326 2092 c-3 -5 1 -9 9 -9 8 0 12 4 9 9 -3 4 -7 8 -9 8 -2 0 -6 -4
-9 -8z"/>
<path d="M3808 1527 c-70 -28 -126 -52 -124 -54 10 -10 266 89 266 102 0 9
-15 4 -142 -48z"/>
<path d="M1595 1515 c3 -49 24 -58 142 -62 59 -1 102 0 95 3 -10 5 -9 11 5 27
10 11 12 17 4 12 -10 -6 -12 -4 -7 4 5 7 14 10 22 7 8 -3 14 -1 14 4 0 5 -10
9 -22 9 -13 0 -63 4 -113 10 -136 16 -141 15 -140 -14z"/>
<path d="M1908 1513 c7 -3 16 -2 19 1 4 3 -2 6 -13 5 -11 0 -14 -3 -6 -6z"/>
<path d="M3648 1463 c7 -3 16 -2 19 1 4 3 -2 6 -13 5 -11 0 -14 -3 -6 -6z"/>
<path d="M2815 1353 c-252 -46 -523 -77 -770 -87 -44 -2 26 -2 155 0 129 2
291 11 360 19 163 19 363 54 374 65 23 22 -9 23 -119 3z"/>
</g>
</svg>
